static1_forces_filt12Hz.mot
version=1
nRows=48
nColumns=19
inDegrees=yes
endheader
time	R_ground_force_vx	R_ground_force_vy	R_ground_force_vz	R_ground_force_px	R_ground_force_py	R_ground_force_pz	R_ground_torque_x	R_ground_torque_y	R_ground_torque_z	L_ground_force_vx	L_ground_force_vy	L_ground_force_vz	L_ground_force_px	L_ground_force_py	L_ground_force_pz	L_ground_torque_x	L_ground_torque_y	L_ground_torque_z	
0.000000	 -3.451200	 13.913098	385.265485	  0.771504	  0.278774	  0.011500	  0.000000	  0.000000	 -1.897128	 -0.186358	-12.518971	398.846448	  0.758397	  0.718202	  0.011500	  0.000000	  0.000000	 -0.313545
0.000500	 -3.445163	 13.924671	385.270008	  0.771533	  0.278771	  0.011500	  0.000000	  0.000000	 -1.891622	 -0.176654	-12.521876	398.869309	  0.758401	  0.718210	  0.011500	  0.000000	  0.000000	 -0.341690
0.001000	 -3.439434	 13.936484	385.274151	  0.771562	  0.278769	  0.011500	  0.000000	  0.000000	 -1.885925	 -0.167150	-12.524707	398.891893	  0.758405	  0.718217	  0.011500	  0.000000	  0.000000	 -0.369622
0.001500	 -3.434032	 13.948531	385.277890	  0.771591	  0.278767	  0.011500	  0.000000	  0.000000	 -1.880036	 -0.157865	-12.527455	398.914168	  0.758409	  0.718224	  0.011500	  0.000000	  0.000000	 -0.397300
0.002000	 -3.428973	 13.960806	385.281205	  0.771619	  0.278764	  0.011500	  0.000000	  0.000000	 -1.873954	 -0.148813	-12.530112	398.936104	  0.758412	  0.718231	  0.011500	  0.000000	  0.000000	 -0.424682
0.002500	 -3.424271	 13.973301	385.284075	  0.771648	  0.278762	  0.011500	  0.000000	  0.000000	 -1.867680	 -0.140012	-12.532670	398.957671	  0.758414	  0.718238	  0.011500	  0.000000	  0.000000	 -0.451726
0.003000	 -3.419939	 13.986007	385.286478	  0.771676	  0.278760	  0.011500	  0.000000	  0.000000	 -1.861214	 -0.131474	-12.535123	398.978844	  0.758416	  0.718245	  0.011500	  0.000000	  0.000000	 -0.478391
0.003500	 -3.415985	 13.998915	385.288393	  0.771705	  0.278759	  0.011500	  0.000000	  0.000000	 -1.854557	 -0.123210	-12.537461	398.999603	  0.758418	  0.718252	  0.011500	  0.000000	  0.000000	 -0.504636
0.004000	 -3.412416	 14.012014	385.289800	  0.771732	  0.278757	  0.011500	  0.000000	  0.000000	 -1.847712	 -0.115229	-12.539678	399.019928	  0.758419	  0.718258	  0.011500	  0.000000	  0.000000	 -0.530422
0.004500	 -3.409236	 14.025292	385.290680	  0.771760	  0.278755	  0.011500	  0.000000	  0.000000	 -1.840680	 -0.107539	-12.541763	399.039807	  0.758420	  0.718265	  0.011500	  0.000000	  0.000000	 -0.555710
0.005000	 -3.406445	 14.038733	385.291013	  0.771787	  0.278754	  0.011500	  0.000000	  0.000000	 -1.833467	 -0.100143	-12.543710	399.059232	  0.758420	  0.718272	  0.011500	  0.000000	  0.000000	 -0.580466
0.005500	 -3.404043	 14.052323	385.290784	  0.771814	  0.278753	  0.011500	  0.000000	  0.000000	 -1.826078	 -0.093045	-12.545512	399.078195	  0.758420	  0.718278	  0.011500	  0.000000	  0.000000	 -0.604657
0.006000	 -3.402026	 14.066044	385.289978	  0.771841	  0.278752	  0.011500	  0.000000	  0.000000	 -1.818519	 -0.086246	-12.547163	399.096697	  0.758420	  0.718284	  0.011500	  0.000000	  0.000000	 -0.628253
0.006500	 -3.400388	 14.079875	385.288582	  0.771867	  0.278751	  0.011500	  0.000000	  0.000000	 -1.810800	 -0.079745	-12.548658	399.114739	  0.758419	  0.718291	  0.011500	  0.000000	  0.000000	 -0.651229
0.007000	 -3.399122	 14.093795	385.286587	  0.771893	  0.278750	  0.011500	  0.000000	  0.000000	 -1.802931	 -0.073538	-12.549996	399.132327	  0.758419	  0.718297	  0.011500	  0.000000	  0.000000	 -0.673564
0.007500	 -3.398219	 14.107778	385.283985	  0.771918	  0.278750	  0.011500	  0.000000	  0.000000	 -1.794923	 -0.067623	-12.551176	399.149470	  0.758418	  0.718303	  0.011500	  0.000000	  0.000000	 -0.695241
0.008000	 -3.397669	 14.121798	385.280771	  0.771943	  0.278749	  0.011500	  0.000000	  0.000000	 -1.786791	 -0.061993	-12.552200	399.166178	  0.758417	  0.718309	  0.011500	  0.000000	  0.000000	 -0.716250
0.008500	 -3.397462	 14.135826	385.276944	  0.771968	  0.278749	  0.011500	  0.000000	  0.000000	 -1.778549	 -0.056642	-12.553072	399.182462	  0.758416	  0.718315	  0.011500	  0.000000	  0.000000	 -0.736585
0.009000	 -3.397589	 14.149831	385.272503	  0.771992	  0.278749	  0.011500	  0.000000	  0.000000	 -1.770216	 -0.051561	-12.553800	399.198338	  0.758415	  0.718321	  0.011500	  0.000000	  0.000000	 -0.756247
0.009500	 -3.398037	 14.163781	385.267448	  0.772016	  0.278749	  0.011500	  0.000000	  0.000000	 -1.761810	 -0.046741	-12.554393	399.213819	  0.758414	  0.718327	  0.011500	  0.000000	  0.000000	 -0.775239
0.010000	 -3.398798	 14.177642	385.261783	  0.772039	  0.278749	  0.011500	  0.000000	  0.000000	 -1.753353	 -0.042170	-12.554861	399.228920	  0.758413	  0.718333	  0.011500	  0.000000	  0.000000	 -0.793573
0.010500	 -3.399863	 14.191378	385.255511	  0.772062	  0.278749	  0.011500	  0.000000	  0.000000	 -1.744868	 -0.037838	-12.555218	399.243655	  0.758412	  0.718339	  0.011500	  0.000000	  0.000000	 -0.811262
0.011000	 -3.401223	 14.204952	385.248639	  0.772084	  0.278749	  0.011500	  0.000000	  0.000000	 -1.736379	 -0.033730	-12.555478	399.258037	  0.758412	  0.718345	  0.011500	  0.000000	  0.000000	 -0.828326
0.011500	 -3.402873	 14.218327	385.241173	  0.772106	  0.278749	  0.011500	  0.000000	  0.000000	 -1.727912	 -0.029836	-12.555658	399.272075	  0.758412	  0.718350	  0.011500	  0.000000	  0.000000	 -0.844786
0.012000	 -3.404805	 14.231464	385.233122	  0.772128	  0.278750	  0.011500	  0.000000	  0.000000	 -1.719494	 -0.026142	-12.555774	399.285780	  0.758412	  0.718356	  0.011500	  0.000000	  0.000000	 -0.860666
0.012500	 -3.407015	 14.244322	385.224494	  0.772149	  0.278750	  0.011500	  0.000000	  0.000000	 -1.711151	 -0.022634	-12.555844	399.299157	  0.758412	  0.718361	  0.011500	  0.000000	  0.000000	 -0.875995
0.013000	 -3.409498	 14.256864	385.215301	  0.772170	  0.278750	  0.011500	  0.000000	  0.000000	 -1.702911	 -0.019302	-12.555884	399.312211	  0.758412	  0.718367	  0.011500	  0.000000	  0.000000	 -0.890801
0.013500	 -3.412251	 14.269051	385.205551	  0.772190	  0.278751	  0.011500	  0.000000	  0.000000	 -1.694800	 -0.016132	-12.555911	399.324943	  0.758413	  0.718372	  0.011500	  0.000000	  0.000000	 -0.905113
0.014000	 -3.415269	 14.280848	385.195255	  0.772210	  0.278751	  0.011500	  0.000000	  0.000000	 -1.686846	 -0.013114	-12.555940	399.337354	  0.758413	  0.718377	  0.011500	  0.000000	  0.000000	 -0.918962
0.014500	 -3.418551	 14.292218	385.184424	  0.772230	  0.278752	  0.011500	  0.000000	  0.000000	 -1.679071	 -0.010238	-12.555984	399.349442	  0.758414	  0.718382	  0.011500	  0.000000	  0.000000	 -0.932376
0.015000	 -3.422092	 14.303132	385.173064	  0.772249	  0.278752	  0.011500	  0.000000	  0.000000	 -1.671501	 -0.007493	-12.556057	399.361204	  0.758415	  0.718387	  0.011500	  0.000000	  0.000000	 -0.945385
0.015500	 -3.425889	 14.313561	385.161182	  0.772268	  0.278753	  0.011500	  0.000000	  0.000000	 -1.664156	 -0.004870	-12.556168	399.372636	  0.758416	  0.718392	  0.011500	  0.000000	  0.000000	 -0.958016
0.016000	 -3.429939	 14.323482	385.148782	  0.772286	  0.278753	  0.011500	  0.000000	  0.000000	 -1.657055	 -0.002362	-12.556325	399.383732	  0.758417	  0.718396	  0.011500	  0.000000	  0.000000	 -0.970292
0.016500	 -3.434238	 14.332876	385.135865	  0.772304	  0.278753	  0.011500	  0.000000	  0.000000	 -1.650213	  0.000040	-12.556535	399.394486	  0.758418	  0.718401	  0.011500	  0.000000	  0.000000	 -0.982238
0.017000	 -3.438779	 14.341729	385.122431	  0.772321	  0.278754	  0.011500	  0.000000	  0.000000	 -1.643643	  0.002341	-12.556803	399.404891	  0.758419	  0.718405	  0.011500	  0.000000	  0.000000	 -0.993873
0.017500	 -3.443556	 14.350032	385.108474	  0.772338	  0.278754	  0.011500	  0.000000	  0.000000	 -1.637353	  0.004547	-12.557129	399.414941	  0.758420	  0.718409	  0.011500	  0.000000	  0.000000	 -1.005215
0.018000	 -3.448563	 14.357782	385.093991	  0.772354	  0.278754	  0.011500	  0.000000	  0.000000	 -1.631349	  0.006663	-12.557515	399.424631	  0.758420	  0.718413	  0.011500	  0.000000	  0.000000	 -1.016278
0.018500	 -3.453791	 14.364982	385.078974	  0.772370	  0.278755	  0.011500	  0.000000	  0.000000	 -1.625635	  0.008693	-12.557958	399.433961	  0.758421	  0.718417	  0.011500	  0.000000	  0.000000	 -1.027074
0.019000	 -3.459232	 14.371637	385.063415	  0.772385	  0.278755	  0.011500	  0.000000	  0.000000	 -1.620208	  0.010642	-12.558455	399.442932	  0.758422	  0.718421	  0.011500	  0.000000	  0.000000	 -1.037610
0.019500	 -3.464877	 14.377760	385.047306	  0.772400	  0.278755	  0.011500	  0.000000	  0.000000	 -1.615065	  0.012512	-12.559001	399.451549	  0.758423	  0.718424	  0.011500	  0.000000	  0.000000	 -1.047894
0.020000	 -3.470715	 14.383369	385.030642	  0.772415	  0.278755	  0.011500	  0.000000	  0.000000	 -1.610199	  0.014307	-12.559589	399.459822	  0.758424	  0.718428	  0.011500	  0.000000	  0.000000	 -1.057927
0.020500	 -3.476738	 14.388482	385.013417	  0.772429	  0.278755	  0.011500	  0.000000	  0.000000	 -1.605600	  0.016029	-12.560212	399.467763	  0.758425	  0.718431	  0.011500	  0.000000	  0.000000	 -1.067712
0.021000	 -3.482936	 14.393125	384.995628	  0.772442	  0.278756	  0.011500	  0.000000	  0.000000	 -1.601255	  0.017683	-12.560862	399.475386	  0.758426	  0.718434	  0.011500	  0.000000	  0.000000	 -1.077247
0.021500	 -3.489299	 14.397326	384.977275	  0.772455	  0.278756	  0.011500	  0.000000	  0.000000	 -1.597147	  0.019269	-12.561530	399.482706	  0.758428	  0.718437	  0.011500	  0.000000	  0.000000	 -1.086529
0.022000	 -3.495821	 14.401114	384.958362	  0.772468	  0.278756	  0.011500	  0.000000	  0.000000	 -1.593261	  0.020792	-12.562207	399.489743	  0.758429	  0.718440	  0.011500	  0.000000	  0.000000	 -1.095553
0.022500	 -3.502491	 14.404521	384.938895	  0.772480	  0.278756	  0.011500	  0.000000	  0.000000	 -1.589576	  0.022251	-12.562883	399.496515	  0.758430	  0.718443	  0.011500	  0.000000	  0.000000	 -1.104312
0.023000	 -3.509306	 14.407580	384.918883	  0.772492	  0.278756	  0.011500	  0.000000	  0.000000	 -1.586071	  0.023649	-12.563551	399.503043	  0.758432	  0.718445	  0.011500	  0.000000	  0.000000	 -1.112795
0.023500	 -3.516258	 14.410325	384.898339	  0.772503	  0.278757	  0.011500	  0.000000	  0.000000	 -1.582726	  0.024987	-12.564200	399.509348	  0.758433	  0.718448	  0.011500	  0.000000	  0.000000	 -1.120994
